<svg width="401" height="252" viewBox="0 0 401 252" fill="none" xmlns="http://www.w3.org/2000/svg">
<g clip-path="url(#clip0)">
<path d="M267.9 242.9C267.4 241.1 266.1 239.5 264.4 238.9C262.6 238.3 260.4 239.2 259.9 241C258.3 239.7 255.8 240.7 254.5 242.4C252.4 245.1 254 249.5 254.4 249.7C254.8 250 255.8 250 255.8 250L271.5 249.9C271.5 249.9 274.4 249.7 275.7 249.2C278.4 248.1 280.2 243.5 278.5 241.2C277.3 239.6 275 239.3 273.1 239.9C271.2 240.4 269.4 241.6 267.9 242.9Z" fill="#6CDD6C"/>
<path d="M255.5 250.5C255.1 250.5 254.4 250.4 254 250.1C253.4 249.6 251.8 244.9 254 242C254.9 240.8 256.3 240 257.7 239.8C258.4 239.7 259 239.8 259.6 240.1C259.9 239.5 260.5 239 261.1 238.6C262.1 238.1 263.4 237.9 264.5 238.3C266.1 238.8 267.4 240.1 268.1 241.9C269.6 240.7 271.3 239.7 272.9 239.2C274.8 238.6 277.4 238.8 278.8 240.7C279.6 241.8 279.8 243.4 279.3 245.1C278.7 247.1 277.3 248.9 275.8 249.5C274.4 250.1 271.6 250.3 271.4 250.3L255.7 250.4C255.7 250.5 255.6 250.5 255.5 250.5ZM258.1 240.9C258 240.9 257.9 240.9 257.8 240.9C256.8 241 255.6 241.7 254.8 242.7C253 245.1 254.3 249 254.6 249.4C254.7 249.5 255.2 249.5 255.6 249.5L271.3 249.4C271.3 249.4 274.1 249.2 275.3 248.7C276.5 248.2 277.7 246.7 278.2 245C278.6 243.6 278.5 242.3 277.9 241.5C276.8 240 274.6 239.9 273.1 240.4C271.5 240.9 269.7 242 268.1 243.4C268 243.5 267.8 243.6 267.6 243.5C267.4 243.5 267.3 243.3 267.2 243.2C266.6 241.4 265.5 240 264 239.6C263.2 239.3 262.2 239.4 261.4 239.8C260.7 240.1 260.3 240.7 260.1 241.3C260 241.5 259.9 241.6 259.8 241.6C259.6 241.6 259.5 241.6 259.3 241.5C259.1 241 258.6 240.9 258.1 240.9Z" fill="#50AA50"/>
<path d="M251.4 242.3C251 243.2 250.8 244.1 250.9 245.1C251 245.6 251.7 245.6 251.7 245.1C251.6 244.3 251.7 243.4 252.1 242.7C252.3 242.3 251.6 241.9 251.4 242.3Z" fill="#50AA50"/>
<path d="M249.1 242.9C248.9 243.8 248.8 244.7 249 245.5C249.1 246 249.9 245.8 249.8 245.3C249.6 244.5 249.7 243.8 249.9 243.1C250 242.7 249.2 242.4 249.1 242.9Z" fill="#50AA50"/>
<path d="M253.5 241.4C254 241.4 254 240.6 253.5 240.6C253 240.6 253 241.4 253.5 241.4Z" fill="#50AA50"/>
<path d="M255.7 245.1C255.7 245.3 255.7 245.6 255.7 245.8C255.7 246.3 256.5 246.3 256.5 245.8C256.5 245.6 256.5 245.3 256.5 245.1C256.5 244.6 255.7 244.6 255.7 245.1Z" fill="#50AA50"/>
<path d="M268.8 246.3C268.8 246.4 268.8 246.5 268.8 246.6C268.8 247.1 269.6 247.1 269.6 246.6C269.6 246.5 269.6 246.4 269.6 246.3C269.6 245.8 268.8 245.8 268.8 246.3Z" fill="#50AA50"/>
<path d="M267.4 245.4C267.5 245.5 267.5 245.5 267.6 245.6C268 246 268.5 245.4 268.1 245.1C268 245 268 245 267.9 244.9C267.6 244.5 267 245 267.4 245.4Z" fill="#50AA50"/>
<path d="M46.4 228.2H20C19.4 228.2 19 227.7 19 227.2C19 226.6 19.5 226.2 20 226.2H46.3C46.9 226.2 47.3 226.7 47.3 227.2C47.4 227.8 46.9 228.2 46.4 228.2Z" fill="#405B91"/>
<path d="M278.2 136.9H277.4C277.4 136.3 276.9 135.8 276.3 135.8C275.7 135.8 275.2 136.3 275.2 136.9H274.4C274.4 135.9 275.2 135 276.3 135C277.4 135 278.2 135.9 278.2 136.9Z" fill="white"/>
<path d="M280.9 93.1H280.1C280.1 92.5 279.6 92 279 92C278.4 92 277.9 92.5 277.9 93.1H277.1C277.1 92.1 277.9 91.2 279 91.2C280 91.3 280.9 92.1 280.9 93.1Z" fill="white"/>
<path d="M187.3 245.3H151.5L152.1 243.9C154.4 238.3 154.7 233.6 154.3 228.1L154.2 227L184.4 226.9V227.9C184.4 231.4 185.4 239.4 186.8 243.9L187.3 245.3ZM154.6 243.2H184.5C183.3 238.8 182.6 232.6 182.4 228.9L156.5 229C156.7 233.9 156.4 238.3 154.6 243.2Z" fill="#415B91"/>
<path d="M141.2 228.9C114 228.9 92 228.8 91.1 228.4C88.8 227.6 85.7 224.3 85.7 222.1C85.6 217.1 85.4 210.4 85.2 202.6C84.5 179.1 83.4 146.8 84.8 129C85 125.7 87.7 123.2 90.9 123.2H91L247.6 123.4C250.9 123.5 253.6 126.1 253.6 129.5C253.7 134.7 253.9 140 254.1 145.4C254.8 168 255.6 191.4 253.1 213.5C253 214.4 253 215.3 252.9 216.3C252.7 220.9 252.4 226.7 246.5 227.9C243.4 228.6 185.5 228.9 141.2 228.9ZM90.8 124.9C88.4 124.9 86.5 126.7 86.3 129.1C85 146.9 86 179 86.7 202.5C86.9 210.3 87.2 217.1 87.2 222C87.2 223.4 89.6 226.1 91.5 226.8C94.8 227.5 242.1 227 245.9 226.3C250.6 225.4 250.8 220.7 251 216.3C251 215.3 251.1 214.3 251.2 213.4C253.7 191.4 252.9 168.1 252.2 145.6C252 140.2 251.9 134.9 251.7 129.7C251.6 127.2 249.7 125.3 247.3 125.2L90.8 124.9C90.9 124.9 90.8 124.9 90.8 124.9Z" fill="#415B91"/>
<path fill-rule="evenodd" clip-rule="evenodd" d="M243.2 128.9L95.6 128.7C92.9 128.7 90.7 130.5 90.5 132.9C88.8 152.7 91.1 193.9 91.4 210.5C91.4 212.1 94.1 214.5 96 215.1C98.2 215.8 238.5 215.3 241.9 214.7C248.1 213.6 247 207.3 247.5 203.3C250.4 180.5 248.6 155.7 248 133.4C248 130.8 245.8 128.9 243.2 128.9Z" fill="#B6D0FB"/>
<path d="M200.1 251H138.7C136.3 251 135 249.1 135 247.2C135 245.3 136.3 243.4 138.7 243.4H200.1C202.5 243.4 203.8 245.3 203.8 247.2C203.8 249.1 202.5 251 200.1 251ZM138.7 245C137.1 245 136.7 246.3 136.7 247.1C136.7 247.9 137.1 249.2 138.7 249.2H200.1C201.7 249.2 202.1 247.9 202.1 247.1C202.1 246.3 201.7 245 200.1 245H138.7Z" fill="#415B91"/>
<path d="M95.9 223.1C98.7 223.1 98.7 218.8 95.9 218.8C93.2 218.8 93.2 223.1 95.9 223.1Z" fill="#415B91"/>
<path d="M104.6 223.1C107.4 223.1 107.4 218.8 104.6 218.8C101.8 218.8 101.8 223.1 104.6 223.1Z" fill="#415B91"/>
<path d="M113.2 223.1C116 223.1 116 218.8 113.2 218.8C110.4 218.8 110.4 223.1 113.2 223.1Z" fill="#415B91"/>
<path d="M169.4 127.6C170.7 127.6 170.7 125.6 169.4 125.6C168.1 125.6 168.1 127.6 169.4 127.6Z" fill="#415B91"/>
<path d="M342.6 246.9H321.4L329.5 220.2H334.4L342.6 246.9Z" fill="#B6D0FB"/>
<path d="M344.3 246.9H319.6V250H344.3V246.9Z" fill="#B6D0FB"/>
<path d="M323.4 240.2L321.4 246.9H342.6L340.5 240.2H323.4Z" fill="#415B91"/>
<path d="M325.5 233.5H338.5L336.4 226.9H327.5L325.5 233.5Z" fill="#415B91"/>
<path d="M351.2 249.8H355.9V231.6H380V249.8H384.7V231.6H389.7V217.1H385.7V215.8H378.9V217.1H357.5V215.8H350.7V217.1H346.3V231.6H351.2V249.8ZM388.2 218.6L385.3 230.1H380.1L383 218.6H388.2ZM374.7 230.1H369.5L372.4 218.6H377.6L374.7 230.1ZM364.1 230.1H358.9L361.8 218.6H367L364.1 230.1ZM351.3 218.6H356.5L353.6 230.1H348.4L351.3 218.6Z" fill="#B6D0FB"/>
<path d="M120.3 72.1L121.7 70.7C122 70.4 122 70 121.7 69.7L120.5 68.5C120.2 68.2 120.1 67.7 120.3 67.3L121.3 64.9C121.4 64.5 121.8 64.2 122.2 64.2H123.9C124.3 64.2 124.6 63.9 124.6 63.5V61.5C124.6 61.1 124.3 60.8 123.9 60.8H122.2C121.8 60.8 121.4 60.5 121.3 60.1L120.3 57.7C120.1 57.3 120.2 56.8 120.5 56.5L121.7 55.3C122 55 122 54.6 121.7 54.3L120.3 52.9C120 52.6 119.6 52.6 119.3 52.9L118 54C117.7 54.3 117.2 54.4 116.8 54.2L114.4 53.2C114 53.1 113.7 52.7 113.7 52.3V50.6C113.7 50.2 113.4 49.9 113 49.9H111C110.6 49.9 110.3 50.2 110.3 50.6V52.3C110.3 52.7 110 53.1 109.6 53.2L107.2 54.2C106.8 54.4 106.3 54.3 106 54L104.8 52.8C104.5 52.5 104.1 52.5 103.8 52.8L102.4 54.2C102.1 54.5 102.1 54.9 102.4 55.2L103.6 56.4C103.9 56.7 104 57.2 103.8 57.6L102.8 60C102.7 60.4 102.3 60.7 101.9 60.7H100.2C99.8 60.7 99.5 61 99.5 61.4V63.4C99.5 63.8 99.8 64.1 100.2 64.1H101.9C102.3 64.1 102.7 64.4 102.8 64.8L103.8 67.2C104 67.6 103.9 68.1 103.6 68.4L102.4 69.6C102.1 69.9 102.1 70.3 102.4 70.6L103.8 72C104.1 72.3 104.5 72.3 104.8 72L106 70.8C106.3 70.5 106.8 70.4 107.2 70.6L109.6 71.6C110 71.7 110.3 72.1 110.3 72.5V74.2C110.3 74.6 110.6 74.9 111 74.9H113C113.4 74.9 113.7 74.6 113.7 74.2V72.5C113.7 72.1 114 71.7 114.4 71.6L116.8 70.6C117.2 70.4 117.7 70.5 118 70.8L119.2 72C119.5 72.4 120 72.4 120.3 72.1ZM112 68.2C108.8 68.2 106.2 65.6 106.2 62.4C106.2 59.2 108.8 56.6 112 56.6C115.2 56.6 117.8 59.2 117.8 62.4C117.8 65.6 115.2 68.2 112 68.2Z" fill="#B6D0FB"/>
<path d="M133.7 77.6L133.3 76.4C133.2 76.2 133 76 132.7 76.1L131.7 76.4C131.5 76.5 131.2 76.4 131 76.1L130 74.8C129.8 74.6 129.8 74.3 129.9 74.1L130.4 73.2C130.5 73 130.4 72.7 130.2 72.6L129.1 72C128.9 71.9 128.6 72 128.5 72.2L128 73.1C127.9 73.3 127.6 73.5 127.3 73.4L125.7 73.2C125.5 73.2 125.2 73 125.1 72.8L124.8 71.8C124.7 71.6 124.5 71.4 124.2 71.5L123 71.9C122.8 72 122.6 72.2 122.7 72.5L123 73.5C123.1 73.7 123 74 122.7 74.2L121.4 75.2C121.2 75.4 120.9 75.4 120.7 75.3L119.8 74.8C119.6 74.7 119.3 74.8 119.2 75L118.6 76.1C118.5 76.3 118.6 76.6 118.8 76.7L119.7 77.2C119.9 77.3 120.1 77.6 120 77.9L119.8 79.5C119.8 79.7 119.6 80 119.4 80.1L118.4 80.4C118.2 80.5 118 80.7 118.1 81L118.5 82.2C118.6 82.4 118.8 82.6 119.1 82.5L120.1 82.2C120.3 82.1 120.6 82.2 120.8 82.4L121.8 83.7C122 83.9 122 84.2 121.9 84.4L121.4 85.3C121.3 85.5 121.4 85.8 121.6 85.9L122.7 86.5C122.9 86.6 123.2 86.5 123.3 86.3L123.8 85.4C123.9 85.2 124.2 85 124.5 85.1L126.1 85.3C126.4 85.3 126.6 85.5 126.7 85.7L127 86.7C127.1 86.9 127.3 87.1 127.6 87L128.8 86.6C129 86.5 129.2 86.3 129.1 86L128.8 85C128.7 84.8 128.8 84.5 129 84.3L130.3 83.3C130.5 83.1 130.8 83.1 131 83.2L131.9 83.7C132.1 83.8 132.4 83.7 132.5 83.5L133.1 82.4C133.2 82.2 133.1 81.9 132.9 81.8L132 81.3C131.8 81.2 131.6 80.9 131.7 80.6L132 79C132 78.8 132.2 78.5 132.4 78.4L133.4 78.1C133.7 78.1 133.8 77.8 133.7 77.6ZM129.2 81C128.3 82.8 126.1 83.4 124.3 82.5C122.5 81.6 121.9 79.4 122.8 77.6C123.7 75.8 125.9 75.2 127.7 76.1C129.5 77 130.2 79.2 129.2 81Z" fill="#B6D0FB"/>
<path d="M192.6 100.4H160C159.4 100.4 159 99.9 159 99.4C159 98.8 159.5 98.4 160 98.4H192.6C193.2 98.4 193.6 98.9 193.6 99.4C193.7 99.9 193.2 100.4 192.6 100.4Z" fill="#405B91"/>
<path d="M126.3 115.2H73.6C73 115.2 72.6 114.7 72.6 114.2C72.6 113.7 73.1 113.2 73.6 113.2H126.3C126.9 113.2 127.3 113.7 127.3 114.2C127.3 114.7 126.8 115.2 126.3 115.2Z" fill="#405B91"/>
<path d="M378.7 143.2H326C325.4 143.2 325 142.7 325 142.2C325 141.7 325.5 141.2 326 141.2H378.7C379.3 141.2 379.7 141.7 379.7 142.2C379.7 142.7 379.3 143.2 378.7 143.2Z" fill="#405B91"/>
<path d="M399.4 252H1C0.4 252 0 251.5 0 251C0 250.4 0.5 250 1 250H399.4C400 250 400.4 250.5 400.4 251C400.5 251.5 400 252 399.4 252Z" fill="#405B91"/>
<path d="M253.3 87.3C251.1 87.3 249 88.2 247.4 89.7C244.7 92.4 244.2 96.6 246.1 99.8L246.2 100L237.7 108.5C237.7 108.5 237.3 108.9 237.3 109.5C237.3 109.9 237.5 110.4 237.9 110.8C238.4 111.3 238.8 111.5 239.3 111.5C239.9 111.5 240.3 111.2 240.3 111.2L248.7 102.7L248.9 102.8C250.2 103.6 251.6 103.9 253.1 103.9C255.3 103.9 257.4 103 259 101.5C262.3 98.2 262.3 92.9 259 89.7C257.6 88.2 255.5 87.3 253.3 87.3ZM253.3 101.6C250.1 101.6 247.4 99 247.4 95.7C247.4 92.5 250 89.8 253.3 89.8C256.5 89.8 259.2 92.4 259.2 95.7C259.2 98.9 256.5 101.6 253.3 101.6Z" fill="#B6D0FB"/>
<path d="M250.2 96.9H256.3V95.4H250.2V96.9Z" fill="#B6D0FB"/>
<path d="M98 250.1C97.4 250.1 97 249.6 97 249.1V169.2C97 168.6 97.5 168.2 98 168.2C98.6 168.2 99 168.7 99 169.2V249.1C99 249.6 98.6 250.1 98 250.1Z" fill="#405B91"/>
<path d="M116.5 250.1C115.9 250.1 115.5 249.6 115.5 249.1V169.2C115.5 168.6 116 168.2 116.5 168.2C117 168.2 117.5 168.7 117.5 169.2V249.1C117.6 249.6 117.1 250.1 116.5 250.1Z" fill="#405B91"/>
<path d="M116.5 175.7H98C97.4 175.7 97 175.2 97 174.7C97 174.1 97.5 173.7 98 173.7H116.6C117.2 173.7 117.6 174.2 117.6 174.7C117.6 175.2 117.1 175.7 116.5 175.7Z" fill="#405B91"/>
<path d="M116.5 184.8H98C97.4 184.8 97 184.3 97 183.8C97 183.2 97.5 182.8 98 182.8H116.6C117.2 182.8 117.6 183.3 117.6 183.8C117.6 184.3 117.1 184.8 116.5 184.8Z" fill="#405B91"/>
<path d="M116.5 193.9H98C97.4 193.9 97 193.4 97 192.9C97 192.3 97.5 191.9 98 191.9H116.6C117.2 191.9 117.6 192.4 117.6 192.9C117.6 193.5 117.1 193.9 116.5 193.9Z" fill="#405B91"/>
<path d="M116.5 203.1H98C97.4 203.1 97 202.6 97 202.1C97 201.5 97.5 201.1 98 201.1H116.6C117.2 201.1 117.6 201.6 117.6 202.1C117.6 202.6 117.1 203.1 116.5 203.1Z" fill="#405B91"/>
<path d="M116.5 212.2H98C97.4 212.2 97 211.7 97 211.2C97 210.6 97.5 210.2 98 210.2H116.6C117.2 210.2 117.6 210.7 117.6 211.2C117.6 211.7 117.1 212.2 116.5 212.2Z" fill="#405B91"/>
<path d="M116.5 221.3H98C97.4 221.3 97 220.8 97 220.3C97 219.8 97.5 219.3 98 219.3H116.6C117.2 219.3 117.6 219.8 117.6 220.3C117.6 220.8 117.1 221.3 116.5 221.3Z" fill="#405B91"/>
<path d="M116.5 230.4H98C97.4 230.4 97 229.9 97 229.4C97 228.8 97.5 228.4 98 228.4H116.6C117.2 228.4 117.6 228.9 117.6 229.4C117.6 230 117.1 230.4 116.5 230.4Z" fill="#405B91"/>
<path d="M116.5 239.5H98C97.4 239.5 97 239 97 238.5C97 237.9 97.5 237.5 98 237.5H116.6C117.2 237.5 117.6 238 117.6 238.5C117.6 239.1 117.1 239.5 116.5 239.5Z" fill="#405B91"/>
<path d="M72.7 173.1C72.1 173.1 71.7 172.6 71.7 172.1V168.1C71.7 167.5 72.2 167.1 72.7 167.1C73.3 167.1 73.7 167.6 73.7 168.1V172.1C73.7 172.6 73.3 173.1 72.7 173.1Z" fill="#405B91"/>
<path d="M74.7 171H70.7C70.1 171 69.7 170.5 69.7 170C69.7 169.4 70.2 169 70.7 169H74.7C75.3 169 75.7 169.5 75.7 170C75.8 170.6 75.3 171 74.7 171Z" fill="#405B91"/>
<path d="M166 28.6C165.4 28.6 165 28.1 165 27.6V23.6C165 23 165.5 22.6 166 22.6C166.6 22.6 167 23.1 167 23.6V27.6C167 28.2 166.5 28.6 166 28.6Z" fill="#405B91"/>
<path d="M168 26.6H164C163.4 26.6 163 26.1 163 25.6C163 25.1 163.5 24.6 164 24.6H168C168.6 24.6 169 25.1 169 25.6C169 26.1 168.6 26.6 168 26.6Z" fill="#405B91"/>
<path d="M198.7 237.7C198.6 237.7 198.5 237.7 198.4 237.7L194.5 236.6C193.9 236.4 193.6 235.9 193.8 235.3C194 234.7 194.5 234.4 195.1 234.6L199 235.7C199.6 235.9 199.9 236.4 199.7 237C199.5 237.4 199.1 237.7 198.7 237.7Z" fill="#405B91"/>
<path d="M196.2 239.1C196.1 239.1 196 239.1 195.9 239.1C195.3 238.9 195 238.4 195.2 237.8L196.3 233.9C196.5 233.3 197 233 197.6 233.2C198.2 233.4 198.5 233.9 198.3 234.5L197.2 238.4C197 238.8 196.6 239.1 196.2 239.1Z" fill="#405B91"/>
<path d="M178.3 115.7C178.2 115.7 178.1 115.7 178 115.7L174.1 114.6C173.5 114.4 173.2 113.9 173.4 113.3C173.6 112.7 174.1 112.4 174.7 112.6L178.6 113.7C179.2 113.9 179.5 114.4 179.3 115C179.1 115.4 178.7 115.7 178.3 115.7Z" fill="#405B91"/>
<path d="M175.8 117.1C175.7 117.1 175.6 117.1 175.5 117.1C174.9 116.9 174.6 116.4 174.8 115.8L175.9 111.9C176.1 111.3 176.6 111 177.2 111.2C177.8 111.4 178.1 111.9 177.9 112.5L176.8 116.4C176.6 116.8 176.2 117.1 175.8 117.1Z" fill="#405B91"/>
<path d="M185.697 87.7144C191.321 82.0909 191.321 72.9735 185.697 67.35C180.074 61.7265 170.956 61.7265 165.333 67.35C159.709 72.9735 159.709 82.0909 165.333 87.7144C170.956 93.3379 180.074 93.3379 185.697 87.7144Z" fill="#B6D0FB"/>
<path d="M175.5 88.3C181.465 88.3 186.3 83.4647 186.3 77.5C186.3 71.5353 181.465 66.7 175.5 66.7C169.535 66.7 164.7 71.5353 164.7 77.5C164.7 83.4647 169.535 88.3 175.5 88.3Z" fill="white"/>
<path d="M175.5 88.7C169.3 88.7 164.3 83.7 164.3 77.5C164.3 71.3 169.3 66.3 175.5 66.3C181.7 66.3 186.7 71.3 186.7 77.5C186.8 83.7 181.7 88.7 175.5 88.7ZM175.5 67.1C169.8 67.1 165.1 71.8 165.1 77.5C165.1 83.2 169.8 87.9 175.5 87.9C181.2 87.9 185.9 83.2 185.9 77.5C185.9 71.8 181.3 67.1 175.5 67.1Z" fill="#405B91"/>
<path d="M175.5 77.9C175.3 77.9 175.1 77.7 175.1 77.5V72C175.1 71.8 175.3 71.6 175.5 71.6C175.7 71.6 175.9 71.8 175.9 72V77.5C176 77.7 175.8 77.9 175.5 77.9Z" fill="#405B91"/>
<path d="M182 77.9H175.6C175.4 77.9 175.2 77.7 175.2 77.5C175.2 77.3 175.4 77.1 175.6 77.1H182C182.2 77.1 182.4 77.3 182.4 77.5C182.4 77.7 182.2 77.9 182 77.9Z" fill="#405B91"/>
<path d="M176 67.9C176 68.1 175.8 68.3 175.6 68.3C175.4 68.3 175.2 68.1 175.2 67.9C175.2 67.7 175.4 67.5 175.6 67.5C175.8 67.5 176 67.7 176 67.9Z" fill="#405B91"/>
<path d="M182.3 71.1C182.521 71.1 182.7 70.9209 182.7 70.7C182.7 70.4791 182.521 70.3 182.3 70.3C182.079 70.3 181.9 70.4791 181.9 70.7C181.9 70.9209 182.079 71.1 182.3 71.1Z" fill="#405B91"/>
<path d="M185.1 77.9C184.9 77.9 184.7 77.7 184.7 77.5C184.7 77.3 184.9 77.1 185.1 77.1C185.3 77.1 185.5 77.3 185.5 77.5C185.5 77.7 185.4 77.9 185.1 77.9Z" fill="#405B91"/>
<path d="M182.3 84.7C182.521 84.7 182.7 84.5209 182.7 84.3C182.7 84.0791 182.521 83.9 182.3 83.9C182.079 83.9 181.9 84.0791 181.9 84.3C181.9 84.5209 182.079 84.7 182.3 84.7Z" fill="#405B91"/>
<path d="M175.1 87.1C175.1 86.9 175.3 86.7 175.5 86.7C175.7 86.7 175.9 86.9 175.9 87.1C175.9 87.3 175.7 87.5 175.5 87.5C175.3 87.5 175.1 87.3 175.1 87.1Z" fill="#405B91"/>
<path d="M168.5 84C168.7 83.8 168.9 83.8 169.1 84C169.3 84.2 169.3 84.4 169.1 84.6C168.9 84.8 168.7 84.8 168.5 84.6C168.3 84.4 168.3 84.1 168.5 84Z" fill="#405B91"/>
<path d="M166 77.9C166.221 77.9 166.4 77.7209 166.4 77.5C166.4 77.2791 166.221 77.1 166 77.1C165.779 77.1 165.6 77.2791 165.6 77.5C165.6 77.7209 165.779 77.9 166 77.9Z" fill="#405B91"/>
<path d="M169.1 70.4C169.3 70.6 169.3 70.8 169.1 71C168.9 71.2 168.7 71.2 168.5 71C168.3 70.8 168.3 70.6 168.5 70.4C168.6 70.3 168.9 70.3 169.1 70.4Z" fill="#405B91"/>
<path d="M196.6 72H190.6C190.4 72 190.2 71.8 190.2 71.6C190.2 71.4 190.4 71.2 190.6 71.2H196.6C196.8 71.2 197 71.4 197 71.6C197 71.8 196.9 72 196.6 72Z" fill="#405B91"/>
<path d="M196.6 83.8H190.6C190.4 83.8 190.2 83.6 190.2 83.4C190.2 83.2 190.4 83 190.6 83H196.6C196.8 83 197 83.2 197 83.4C197 83.6 196.9 83.8 196.6 83.8Z" fill="#405B91"/>
<path d="M204.1 77.9H192.8C192.6 77.9 192.4 77.7 192.4 77.5C192.4 77.3 192.6 77.1 192.8 77.1H204.1C204.3 77.1 204.5 77.3 204.5 77.5C204.6 77.7 204.4 77.9 204.1 77.9Z" fill="#405B91"/>
<path d="M223.9 233.5H217.2V240.2H223.9V233.5Z" fill="white"/>
<path d="M224.4 240.7H216.7V233H224.4V240.7ZM217.7 239.7H223.3V234.1H217.7V239.7Z" fill="#415B91"/>
<path d="M232.3 235H226.3C226.1 235 225.9 234.8 225.9 234.6C225.9 234.4 226.1 234.2 226.3 234.2H232.3C232.5 234.2 232.7 234.4 232.7 234.6C232.7 234.8 232.5 235 232.3 235Z" fill="#405B91"/>
<path d="M234.6 239.6H226.4C226.1 239.6 225.8 239.4 225.8 239.2C225.8 239 226.1 238.8 226.4 238.8H234.6C234.9 238.8 235.2 239 235.2 239.2C235.2 239.4 234.9 239.6 234.6 239.6Z" fill="#405B91"/>
<path d="M237.6 237.2H226.3C226.1 237.2 225.9 237 225.9 236.8C225.9 236.6 226.1 236.4 226.3 236.4H237.6C237.8 236.4 238 236.6 238 236.8C238 237 237.8 237.2 237.6 237.2Z" fill="#405B91"/>
<path d="M70.3834 142.145H77.0834V135.445H70.3834V142.145Z" fill="white"/>
<path d="M77.7 142.7H70V135H77.7V142.7ZM71 141.6H76.6V136H71V141.6Z" fill="#415B91"/>
<path d="M62.0001 137H68.0001C68.2001 137 68.4001 136.8 68.4001 136.6C68.4001 136.4 68.2001 136.2 68.0001 136.2H62.0001C61.8001 136.2 61.6001 136.4 61.6001 136.6C61.6001 136.8 61.8001 137 62.0001 137Z" fill="#405B91"/>
<path d="M59.7001 141.5H67.9001C68.2001 141.5 68.5001 141.3 68.5001 141.1C68.5001 140.9 68.2001 140.7 67.9001 140.7H59.7001C59.4001 140.7 59.1001 140.9 59.1001 141.1C59.2001 141.3 59.4001 141.5 59.7001 141.5Z" fill="#405B91"/>
<path d="M56.7001 139.1H68C68.2 139.1 68.4001 138.9 68.4001 138.7C68.4001 138.5 68.2 138.3 68 138.3H56.7001C56.5001 138.3 56.3 138.5 56.3 138.7C56.3 138.9 56.5001 139.1 56.7001 139.1Z" fill="#405B91"/>
<path d="M276.3 160.6H274.2V249.8H276.3V160.6Z" fill="#3F5B91"/>
<path d="M275.5 171.4H275C271.6 171.4 268.8 168.6 268.8 165.2V157C268.8 153.6 271.6 150.8 275 150.8H275.5C278.9 150.8 281.7 153.6 281.7 157V165.2C281.7 168.6 278.9 171.4 275.5 171.4Z" fill="#B6D0FB"/>
<path d="M283.6 165.4C284.3 165.5 285.1 165.6 285.8 165.8C286.3 165.9 286.5 165.1 286 165C285.3 164.9 284.5 164.8 283.8 164.6C283.3 164.6 283.1 165.3 283.6 165.4Z" fill="#3F5B91"/>
<path d="M283.6 160.7C284.2 160.6 284.7 160.6 285.3 160.6C285.8 160.6 285.8 159.9 285.3 159.8C284.7 159.7 284 159.8 283.4 159.9C282.9 160 283.1 160.7 283.6 160.7Z" fill="#3F5B91"/>
<path d="M283.3 156.3C283.9 156.1 284.4 155.9 285 155.6C285.5 155.4 285.3 154.7 284.8 154.8C284.2 155 283.7 155.2 283.1 155.5C282.7 155.8 282.9 156.5 283.3 156.3Z" fill="#3F5B91"/>
<path d="M264.2 166.1C264.8 166 265.3 165.9 265.9 165.7C266.4 165.5 266.2 164.8 265.7 164.9C265.2 165.1 264.6 165.2 264 165.3C263.5 165.5 263.8 166.2 264.2 166.1Z" fill="#3F5B91"/>
<path d="M263.2 160.6C263.9 160.6 264.6 160.7 265.3 160.9C265.8 161 266 160.3 265.5 160.1C264.7 159.9 264 159.8 263.2 159.7C262.7 159.8 262.7 160.6 263.2 160.6Z" fill="#3F5B91"/>
<path d="M263.9 154.2C264.5 154.4 265 154.6 265.6 154.7C266.1 154.9 266.3 154.1 265.8 153.9C265.2 153.7 264.7 153.5 264.1 153.4C263.6 153.3 263.4 154.1 263.9 154.2Z" fill="#3F5B91"/>
<path d="M270.4 251L271.8 239.1H278.6L280.1 250.8L270.4 251Z" fill="#405B91"/>
<path d="M80.1 193.9C79.8 192 78.5 187.1 75.5 188.7C70.7 191.2 76.5 200.7 70.7 202.4C70.4 198.6 69.6 196 67.9 196.2C64.4 196.5 65.3 204.7 65.2 206.6C65.1 208.4 65.1 210.3 65 212.2C60.8 212.9 61.7 202.1 59.1 200.6C55.2 198.3 54.3 203.5 54.4 205.9C54.6 210 55.7 214.9 59.5 217C60.8 217.7 63 218.5 64.7 218.4C64.7 221.7 64.8 224.9 65.4 228H65.5L67.8 228.1C67.8 229.1 69.4 229.1 69.4 228.1C69.4 226.1 70.6 216.5 70.8 208.3C72.7 208.6 75 207.7 76.3 206.7C80.4 203.8 80.8 198.4 80.1 193.9Z" fill="#6CDD6C"/>
<path d="M68.7 229.3C68.5 229.3 68.2 229.2 68 229.1C67.8 228.9 67.6 228.7 67.5 228.4L65.8 228.3H65.2L65.1 227.9C64.6 225.3 64.4 222.3 64.4 218.7C62.5 218.7 60.4 217.8 59.4 217.2C55.3 214.9 54.2 209.7 54.1 205.7C54 204.1 54.4 200.8 56.2 199.7C57.1 199.2 58.2 199.3 59.5 200C60.7 200.7 61.2 202.9 61.7 205.5C62.4 209 63.1 211.5 64.7 211.5V210.6C64.8 209.1 64.8 207.7 64.9 206.2C64.9 205.9 64.9 205.5 64.9 205C64.8 201.8 64.6 195.7 68 195.4C68.5 195.3 69 195.5 69.4 195.9C70.3 196.7 71 198.5 71.2 201.5C73.3 200.5 73.2 198.1 73.1 195.2C73 192.3 72.8 189.3 75.4 188C76.2 187.6 77 187.5 77.7 187.9C79.8 189 80.5 193.1 80.6 193.6C81.2 197.1 81.4 203.4 76.7 206.8C75.4 207.8 73.2 208.6 71.3 208.5C71.2 213.9 70.6 219.7 70.3 223.7C70.1 225.7 70 227.2 70 227.9C70 228.4 69.8 228.7 69.4 228.9C69.1 229.3 68.9 229.3 68.7 229.3ZM65.9 227.5L68.4 227.6V228C68.4 228.2 68.5 228.3 68.5 228.3C68.6 228.4 68.8 228.4 68.9 228.3C69 228.2 69.1 228.2 69.1 228C69.1 227.3 69.2 225.8 69.4 223.8C69.8 219.8 70.3 213.6 70.4 208.2V207.7L70.9 207.8C72.6 208.1 74.9 207.2 76.1 206.3C80.4 203.1 80.2 197.2 79.6 194C79.4 192.6 78.6 189.7 77.2 189C76.7 188.8 76.2 188.8 75.7 189.1C73.7 190.2 73.8 192.7 73.9 195.5C74 198.5 74.2 201.9 70.8 202.9L70.3 203.1V202.6C70 198.8 69.3 197.5 68.7 197C68.5 196.8 68.2 196.7 67.9 196.7C65.3 196.9 65.5 202.6 65.6 205.4C65.6 206 65.6 206.4 65.6 206.7C65.6 208.1 65.5 209.6 65.4 211.1L65.3 212.7L65 212.8C62.2 213.3 61.4 209.5 60.6 206.1C60.1 203.9 59.7 201.7 58.8 201.2C57.8 200.6 57 200.5 56.4 200.9C55.1 201.7 54.7 204.5 54.8 206.1C55 209.8 56 214.8 59.7 216.9C61 217.6 63.1 218.3 64.7 218.2H65.2V218.7C65.3 222 65.4 224.9 65.9 227.5Z" fill="#50AA50"/>
<path d="M75.5 250H58.6C57.7 250 57 249.4 56.8 248.5L53 228.8L54.6 228.5L58.4 248.2C58.4 248.4 58.6 248.4 58.6 248.4H75.5C75.5 248.4 75.7 248.4 75.7 248.2L79.5 228.5L81.1 228.8L77.3 248.5C77.2 249.4 76.4 250 75.5 250Z" fill="#415B91"/>
<path d="M53.2001 222.5H81.2C81.7 222.5 82.1 223 82.1 223.7V228C82.1 228.6 81.7 229.2 81.2 229.2H53.2001C52.7001 229.2 52.3 228.7 52.3 228V223.7C52.3 223 52.7001 222.5 53.2001 222.5Z" fill="#B6D0FB"/>
<path d="M81.2 229.5H53.2C52.5 229.5 51.9 228.8 51.9 227.9V223.6C51.9 222.7 52.5 222 53.2 222H81.2C81.9 222 82.5 222.7 82.5 223.6V227.9C82.5 228.8 81.9 229.5 81.2 229.5ZM53.2 222.9C53 222.9 52.8 223.2 52.8 223.6V227.9C52.8 228.3 53 228.6 53.2 228.6H81.2C81.4 228.6 81.6 228.3 81.6 227.9V223.6C81.6 223.2 81.4 222.9 81.2 222.9H53.2Z" fill="#405B91"/>
<path d="M81.2 229.5H53.2C52.5 229.5 52 228.8 52 228V223.7C52 222.8 52.6 222.2 53.2 222.2H81.2C81.9 222.2 82.4 222.9 82.4 223.7V228C82.5 228.8 81.9 229.5 81.2 229.5ZM53.2 222.9C53 222.9 52.7 223.2 52.7 223.7V228C52.7 228.5 53 228.8 53.2 228.8H81.2C81.4 228.8 81.7 228.5 81.7 228V223.7C81.7 223.2 81.4 222.9 81.2 222.9H53.2Z" fill="#B6D0FB"/>
<path d="M81.2 229.9H53.2C52.3 229.9 51.5 229 51.5 227.9V223.6C51.5 222.5 52.3 221.6 53.2 221.6H81.2C82.1 221.6 82.9 222.5 82.9 223.6V227.9C82.9 229 82.1 229.9 81.2 229.9ZM53.2 223.3C53.2 223.3 53.1 223.5 53.1 223.7V228C53.1 228.2 53.2 228.4 53.2 228.4H81.2C81.2 228.4 81.3 228.3 81.3 228V223.7C81.3 223.5 81.2 223.3 81.2 223.3H53.2Z" fill="#405B91"/>
<path d="M56.3 205.8C56.8 205.9 57.2001 205.9 57.7001 206C58.2001 206.1 58.2001 205.3 57.7001 205.2C57.2001 205.1 56.8 205.1 56.3 205C55.8 204.9 55.8 205.7 56.3 205.8Z" fill="#50AA50"/>
<path d="M58.3 199.7C58.3 199.9 58.3 200.2 58.3 200.4C58.3 200.9 59.1 200.9 59.1 200.4C59.1 200.2 59.1 199.9 59.1 199.7C59.1 199.2 58.3 199.2 58.3 199.7Z" fill="#50AA50"/>
<path d="M61 206.8C61.3 206.6 61.7 206.4 62 206.2C62.4 206 62 205.3 61.6 205.5C61.3 205.7 60.9 205.9 60.6 206.1C60.1 206.4 60.5 207 61 206.8Z" fill="#50AA50"/>
<path d="M57 215.7C57.4 215.4 57.8 215.1 58.2 214.8C58.6 214.5 58.2 213.8 57.8 214.1C57.4 214.4 57 214.7 56.6 215C56.2 215.3 56.6 216 57 215.7Z" fill="#50AA50"/>
<path d="M54.1 209C54.4 209.1 54.7 209.2 55 209.3C55.5 209.5 55.7 208.7 55.2 208.5C54.9 208.4 54.6 208.3 54.3 208.2C53.8 208.1 53.6 208.9 54.1 209Z" fill="#50AA50"/>
<path d="M59.6999 212.7C59.8999 212.7 59.9999 212.8 60.0999 212.9C60.3999 213.3 60.9999 212.7 60.5999 212.3C60.3999 212 59.9999 211.9 59.5999 211.8C59.1999 211.8 59.1999 212.6 59.6999 212.7Z" fill="#50AA50"/>
<path d="M61.3999 216.3C61.2999 216.8 61.3999 217.3 61.5999 217.8C61.7999 218.3 62.4999 217.9 62.2999 217.4C62.1999 217.1 62.0999 216.8 62.1999 216.5C62.1999 216 61.4999 215.8 61.3999 216.3Z" fill="#50AA50"/>
<path d="M65.5 216.5C65.7 216.6 65.9999 216.6 66.1999 216.7C66.6999 216.8 66.9 216.1 66.4 215.9C66.2 215.8 65.8999 215.8 65.6999 215.7C65.1999 215.6 65 216.3 65.5 216.5Z" fill="#50AA50"/>
<path d="M68 208.8C68 209.2 68.1 209.6 68.5 209.9C68.9 210.2 69.4 209.7 69.1 209.3C68.9 209.1 68.8 209 68.9 208.7C68.8 208.3 68 208.3 68 208.8Z" fill="#50AA50"/>
<path d="M67 203.3C66.8 203.6 66.7 203.9 66.8 204.3C66.9 204.8 67.6 204.6 67.6 204.1C67.6 203.9 67.6 203.8 67.7 203.7C67.9 203.2 67.3 202.9 67 203.3Z" fill="#50AA50"/>
<path d="M71.2 205.5C71.2 205.7 71.2 206 71.2 206.2C71.2 206.7 72 206.7 72 206.2C72 206 72 205.7 72 205.5C72 205 71.2 205 71.2 205.5Z" fill="#50AA50"/>
<path d="M64 204.3C64.2 204.4 64.3 204.5 64.5 204.6C64.9 204.9 65.3 204.2 64.9 203.9C64.7 203.8 64.6 203.7 64.4 203.6C64 203.4 63.6 204 64 204.3Z" fill="#50AA50"/>
<path d="M65.3 197.9C65.5 198.1 65.5 198.3 65.5 198.5C65.5 199 66.3 199 66.3 198.5C66.3 198.1 66.1 197.7 65.8 197.4C65.5 196.9 65 197.5 65.3 197.9Z" fill="#50AA50"/>
<path d="M67.3 195.5C67.3 195.8 67.3 196.2 67.3 196.5C67.3 197 68.1 197 68.1 196.5C68.1 196.2 68.1 195.8 68.1 195.5C68.1 195 67.3 195 67.3 195.5Z" fill="#50AA50"/>
<path d="M72.1 200.1C72.2 200.2 72.3 200.3 72.4 200.5C72.7 200.9 73.3 200.3 72.9 199.9C72.8 199.8 72.7 199.7 72.6 199.5C72.3 199.2 71.7 199.7 72.1 200.1Z" fill="#50AA50"/>
<path d="M72.9 195.4C73.2 195.4 73.6 195.4 73.9 195.5C74.4 195.5 74.4 194.8 73.9 194.7C73.6 194.7 73.2 194.7 72.9 194.6C72.4 194.6 72.4 195.4 72.9 195.4Z" fill="#50AA50"/>
<path d="M74 189.2C74.2 189.4 74.5 189.7 74.7 189.9C75.1 190.3 75.6 189.7 75.2 189.3C75 189.1 74.7 188.8 74.5 188.6C74.2 188.3 73.6 188.9 74 189.2Z" fill="#50AA50"/>
<path d="M77 187.2C77 187.6 77 188 77 188.4C77 188.9 77.8 188.9 77.8 188.4C77.8 188 77.8 187.6 77.8 187.2C77.7 186.7 77 186.7 77 187.2Z" fill="#50AA50"/>
<path d="M78.4 194.5C78.5 194.3 78.6 194.2 78.7 194C79 193.6 78.3 193.2 78 193.6C77.9 193.8 77.8 193.9 77.7 194.1C77.4 194.5 78.1 194.9 78.4 194.5Z" fill="#50AA50"/>
<path d="M75.7 202.1C76 202 76.3 201.9 76.6 201.8C77.1 201.6 76.9 200.9 76.4 201C76.1 201.1 75.8 201.2 75.5 201.3C75.1 201.6 75.3 202.3 75.7 202.1Z" fill="#50AA50"/>
<path d="M79.1999 201C79.4999 200.9 79.7999 200.9 80.0999 200.8C80.5999 200.7 80.4 199.9 79.9 200C79.6 200.1 79.3 200.1 79 200.2C78.5 200.4 78.6999 201.1 79.1999 201Z" fill="#50AA50"/>
<path d="M77 204.7C77 204.8 77 204.8 77 204.9C77 205.4 77.8 205.4 77.8 204.9C77.8 204.8 77.8 204.8 77.8 204.7C77.7 204.2 77 204.2 77 204.7Z" fill="#50AA50"/>
<path d="M70.3001 216.6C70.5001 216.5 70.6001 216.4 70.8001 216.3C71.2001 216 70.8001 215.3 70.4001 215.6C70.2001 215.7 70.1001 215.8 69.9001 215.9C69.5001 216.2 69.9001 216.9 70.3001 216.6Z" fill="#50AA50"/>
<path d="M69.7999 219.4C70.0999 219.1 70.3999 218.9 70.8999 218.8C71.3999 218.7 71.1999 217.9 70.6999 218C70.1999 218.1 69.6999 218.4 69.2999 218.8C68.8999 219.2 69.4999 219.8 69.7999 219.4Z" fill="#50AA50"/>
<path d="M66.6 219.9C66.7 220 66.7 220.1 66.8 220.2C67 220.6 67.7 220.3 67.5 219.8C67.4 219.7 67.4 219.6 67.3 219.5C67.1 219.1 66.4 219.5 66.6 219.9Z" fill="#50AA50"/>
<path d="M63.7 220.7C64.1 220.9 64.6 221 65 220.9C65.5 220.8 65.3 220.1 64.8 220.1C64.5 220.2 64.3 220.1 64.1 220C63.6 219.8 63.2 220.5 63.7 220.7Z" fill="#50AA50"/>
<path d="M70.1 213.4C70.6 213.3 71.1 213.3 71.7 213.2C72.2 213.1 72.2 212.4 71.7 212.4C71.2 212.5 70.7 212.5 70.1 212.6C69.6 212.7 69.6 213.4 70.1 213.4Z" fill="#50AA50"/>
<path d="M139.7 179.3C148.1 171.7 156.4 164.2 164.8 156.6C166 155.5 164.2 153.6 163 154.8C154.6 162.4 146.3 169.9 137.9 177.5C136.7 178.6 138.5 180.4 139.7 179.3Z" fill="#D7E7FF"/>
<path d="M168.1 190.9C176.5 183.3 184.8 175.8 193.2 168.2C194.4 167.1 192.6 165.2 191.4 166.4C183 174 174.7 181.5 166.3 189.1C165.1 190.2 166.9 192 168.1 190.9Z" fill="#D7E7FF"/>
<path d="M137.3 199.4C154.8 182.3 172.4 165.2 189.9 148.1C191.1 146.9 189.3 145.1 188.1 146.3C170.6 163.4 153 180.5 135.5 197.6C134.3 198.8 136.1 200.6 137.3 199.4Z" fill="#D7E7FF"/>
<path d="M217.7 39.8H216.6V112.2H217.7V39.8Z" fill="#415B91"/>
<path d="M221.8 112.3C221.8 114.8 219.7 116.9 217.2 116.9C214.7 116.9 212.6 114.8 212.6 112.3C212.6 109.8 214.7 107.7 217.2 107.7C219.7 107.7 221.8 109.7 221.8 112.3Z" fill="#415B91"/>
<path d="M217.2 127.7C217.1 127.7 215.6 127.7 214.5 126.6C213.8 125.9 213.4 124.9 213.4 123.6C213.4 123.3 213.7 123 214 123C214.3 123 214.6 123.3 214.6 123.6C214.6 124.5 214.9 125.3 215.3 125.8C216 126.5 217.1 126.6 217.1 126.6C218.8 126.6 220.2 125.2 220.2 123.5C220.2 121.8 218.8 120.4 217.1 120.4C216.8 120.4 216.5 120.1 216.5 119.8V116.4C216.5 116.1 216.8 115.8 217.1 115.8C217.4 115.8 217.7 116.1 217.7 116.4V119.2C219.8 119.5 221.4 121.3 221.4 123.5C221.6 125.8 219.6 127.7 217.2 127.7Z" fill="#415B91"/>
<path d="M193.1 130.5C192.9 130.5 192.7 130.3 192.6 130C192.6 129.7 192.8 129.4 193.1 129.4L218 125.7C218.3 125.7 218.6 125.9 218.6 126.2C218.6 126.5 218.4 126.8 218.1 126.8L193.2 130.5H193.1Z" fill="#415B91"/>
<path d="M240.9 138.8C240.8 138.8 240.8 138.8 240.7 138.7L217.8 126.8C217.5 126.7 217.4 126.3 217.6 126C217.7 125.7 218.1 125.6 218.4 125.8L241.3 137.7C241.6 137.8 241.7 138.2 241.5 138.5C241.3 138.7 241.1 138.9 240.9 138.8Z" fill="#415B91"/>
<path d="M239 186.6L178 176C174.8 175.4 172.7 172.4 173.2 169.2L179.3 134.1C179.9 130.9 182.9 128.8 186.1 129.3L247.1 139.9C250.3 140.5 252.4 143.5 251.9 146.7L245.8 181.8C245.2 185 242.2 187.1 239 186.6Z" fill="white"/>
<path d="M239.8 187.4C239.4 187.4 239 187.4 238.6 187.3L178.1 176.8C176.3 176.5 174.7 175.5 173.7 174C172.6 172.5 172.2 170.7 172.6 168.9L178.6 134.2C179.2 130.5 182.8 128 186.5 128.6L247 139.1C248.8 139.4 250.4 140.4 251.4 141.9C252.5 143.4 252.9 145.2 252.6 147L246.6 181.7C246 185.1 243.1 187.4 239.8 187.4ZM185.3 130.1C182.8 130.1 180.5 131.9 180.1 134.5L174.1 169.2C173.9 170.6 174.2 172 175 173.2C175.8 174.4 177 175.1 178.4 175.4L238.9 185.9C241.8 186.4 244.5 184.5 245 181.6L251 146.9C251.2 145.5 250.9 144.1 250.1 142.9C249.3 141.7 248.1 141 246.7 140.7L186.2 130.2C185.9 130.1 185.6 130.1 185.3 130.1Z" fill="#415B91"/>
<path d="M238.5 182.8L179.7 172.6C177.7 172.2 176.3 170.3 176.6 168.3L182.2 136.3C182.6 134.3 184.5 132.9 186.5 133.2L245.3 143.4C247.3 143.8 248.7 145.7 248.4 147.7L242.8 179.7C242.5 181.8 240.6 183.1 238.5 182.8Z" fill="#B6D0FB"/>
<path d="M239.1 183.6C238.8 183.6 238.6 183.6 238.3 183.5L179.8 173.3C178.6 173.1 177.5 172.4 176.8 171.4C176.1 170.4 175.8 169.1 176 167.9L181.5 136.1C181.9 133.6 184.4 131.9 186.9 132.3L245.4 142.5C247.9 142.9 249.6 145.4 249.2 147.9L243.7 179.7C243.5 180.9 242.8 182 241.8 182.7C241 183.3 240 183.6 239.1 183.6ZM238.5 182C239.3 182.1 240.1 182 240.8 181.5C241.5 181 241.9 180.3 242.1 179.5L247.6 147.7C247.9 146 246.8 144.4 245.1 144.1L186.6 133.9C184.9 133.6 183.3 134.7 183 136.4L177.5 168.2C177.4 169 177.5 169.8 178 170.5C178.5 171.2 179.2 171.6 180 171.8L238.5 182Z" fill="#405B91"/>
<path d="M210.7 177.9L225.9 164L234.3 182.1L210.7 177.9Z" fill="white"/>
<path d="M235.2 182.7L209.6 178.2L226.1 163.1L235.2 182.7ZM211.8 177.6L233.4 181.4L225.7 164.9L211.8 177.6Z" fill="#415B91"/>
<path d="M180.6 172.7L207.5 148L222.5 180L180.6 172.7Z" fill="white"/>
<path d="M223.4 180.7L179.5 173.1L207.8 147.2L223.4 180.7ZM181.7 172.4L221.6 179.3L207.4 148.8L181.7 172.4Z" fill="#415B91"/>
<path d="M239.6 152.7C239.2 154.8 237.3 156.1 235.2 155.8C233.1 155.4 231.8 153.5 232.1 151.4C232.4 149.3 234.4 148 236.5 148.3C238.6 148.7 240 150.6 239.6 152.7Z" fill="white"/>
<path d="M235.9 156.3C235.7 156.3 235.4 156.3 235.2 156.2C232.9 155.8 231.3 153.6 231.7 151.2C231.9 150.1 232.5 149.1 233.5 148.4C234.4 147.7 235.6 147.5 236.7 147.7C237.8 147.9 238.8 148.5 239.5 149.5C240.2 150.4 240.4 151.6 240.2 152.7C240 153.8 239.4 154.8 238.4 155.5C237.6 156.1 236.8 156.3 235.9 156.3ZM235.9 148.8C235.2 148.8 234.6 149 234 149.4C233.3 149.9 232.8 150.6 232.7 151.5C232.6 152.4 232.7 153.2 233.2 153.9C233.7 154.6 234.4 155.1 235.3 155.2C236.2 155.3 237 155.2 237.7 154.7C238.4 154.2 238.9 153.5 239 152.6C239.3 150.8 238.1 149.1 236.4 148.8C236.3 148.8 236.1 148.8 235.9 148.8Z" fill="#415B91"/>
<path d="M263.8 37.4H207.3V43.6H263.8V37.4Z" fill="#B6D0FB"/>
<path d="M312.9 166H294.1V0.100006H312.9V166ZM296 164.1H311.1V1.90001H296V164.1Z" fill="#415B91"/>
<path d="M312.7 18.3H294.4V0H312.7V18.3ZM296.3 16.4H310.8V1.9H296.3V16.4Z" fill="#415B91"/>
<path d="M295.982 0.238301L294.638 1.58179L311.043 17.9865L312.387 16.643L295.982 0.238301Z" fill="#415B91"/>
<path d="M311.044 0.309704L294.639 16.7144L295.983 18.0579L312.387 1.65319L311.044 0.309704Z" fill="#415B91"/>
<path d="M312.7 34.7H294.4V16.4H312.7V34.7ZM296.3 32.8H310.8V18.3H296.3V32.8Z" fill="#415B91"/>
<path d="M296.043 16.7138L294.7 18.0572L311.104 34.462L312.448 33.1185L296.043 16.7138Z" fill="#415B91"/>
<path d="M311.034 16.7137L294.629 33.1185L295.972 34.462L312.377 18.0572L311.034 16.7137Z" fill="#415B91"/>
<path d="M312.7 51.1H294.4V32.8H312.7V51.1ZM296.3 49.2H310.8V34.7H296.3V49.2Z" fill="#415B91"/>
<path d="M296.032 33.1164L294.688 34.4599L311.093 50.8646L312.436 49.5211L296.032 33.1164Z" fill="#415B91"/>
<path d="M311.03 33.1271L294.626 49.5318L295.969 50.8753L312.374 34.4706L311.03 33.1271Z" fill="#415B91"/>
<path d="M312.7 67.5H294.4V49.2H312.7V67.5ZM296.3 65.7H310.8V51.1H296.3V65.7Z" fill="#415B91"/>
<path d="M296.022 49.5211L294.679 50.8646L311.083 67.2693L312.427 65.9258L296.022 49.5211Z" fill="#415B91"/>
<path d="M311.013 49.5219L294.608 65.9267L295.952 67.2701L312.357 50.8654L311.013 49.5219Z" fill="#415B91"/>
<path d="M312.7 84H294.4V65.7H312.7V84ZM296.3 82.1H310.8V67.5H296.3V82.1Z" fill="#415B91"/>
<path d="M296.012 65.9261L294.669 67.2696L311.074 83.6743L312.417 82.3308L296.012 65.9261Z" fill="#415B91"/>
<path d="M311.08 66.0068L294.675 82.4115L296.019 83.755L312.423 67.3503L311.08 66.0068Z" fill="#415B91"/>
<path d="M312.7 100.4H294.4V82.1H312.7V100.4ZM296.3 98.5H310.8V84H296.3V98.5Z" fill="#415B91"/>
<path d="M296.001 82.3284L294.658 83.6719L311.062 100.077L312.406 98.7332L296.001 82.3284Z" fill="#415B91"/>
<path d="M311.069 82.4113L294.664 98.816L296.008 100.16L312.413 83.7548L311.069 82.4113Z" fill="#415B91"/>
<path d="M312.7 116.8H294.4V98.5H312.7V116.8ZM296.3 114.9H310.8V100.4H296.3V114.9Z" fill="#415B91"/>
<path d="M295.992 98.7342L294.648 100.078L311.053 116.482L312.397 115.139L295.992 98.7342Z" fill="#415B91"/>
<path d="M311.058 98.8159L294.654 115.221L295.997 116.564L312.402 100.159L311.058 98.8159Z" fill="#415B91"/>
<path d="M312.7 133.2H294.4V114.9H312.7V133.2ZM296.3 131.3H310.8V116.8H296.3V131.3Z" fill="#415B91"/>
<path d="M295.981 115.137L294.638 116.481L311.043 132.885L312.386 131.542L295.981 115.137Z" fill="#415B91"/>
<path d="M311.048 115.22L294.643 131.625L295.987 132.969L312.391 116.564L311.048 115.22Z" fill="#415B91"/>
<path d="M312.7 149.6H294.4V131.3H312.7V149.6ZM296.3 147.7H310.8V133.2H296.3V147.7Z" fill="#415B91"/>
<path d="M296.042 131.613L294.699 132.957L311.103 149.361L312.447 148.018L296.042 131.613Z" fill="#415B91"/>
<path d="M311.037 131.625L294.632 148.03L295.976 149.373L312.381 132.968L311.037 131.625Z" fill="#415B91"/>
<path d="M312.7 166H294.4V147.7H312.7V166ZM296.3 164.1H310.8V149.6H296.3V164.1Z" fill="#415B91"/>
<path d="M296.031 148.014L294.688 149.358L311.092 165.762L312.436 164.419L296.031 148.014Z" fill="#415B91"/>
<path d="M311.019 148.003L294.612 164.405L295.955 165.749L312.362 149.347L311.019 148.003Z" fill="#415B91"/>
<path d="M345.4 34.5H327.1V16.2H345.4V34.5ZM328.9 32.6H343.4V18H328.9V32.6Z" fill="#415B91"/>
<path d="M343.765 16.4836L327.362 32.8907L328.706 34.234L345.108 17.8269L343.765 16.4836Z" fill="#415B91"/>
<path d="M328.694 16.4012L327.35 17.7448L343.755 34.1495L345.098 32.806L328.694 16.4012Z" fill="#415B91"/>
<path d="M328.9 34.5H310.6V16.2H328.9V34.5ZM312.5 32.6H327V18H312.5V32.6Z" fill="#415B91"/>
<path d="M327.36 16.4729L310.958 32.8799L312.301 34.2232L328.704 17.8162L327.36 16.4729Z" fill="#415B91"/>
<path d="M312.289 16.3904L310.946 17.7339L327.35 34.1386L328.694 32.7951L312.289 16.3904Z" fill="#415B91"/>
<path d="M312.5 34.5H294.2V16.2H312.5V34.5ZM296.1 32.6H310.6V18H296.1V32.6Z" fill="#415B91"/>
<path d="M296.1 34.5H277.8V16.2H296.1V34.5ZM279.7 32.6H294.2V18H279.7V32.6Z" fill="#415B91"/>
<path d="M294.543 16.4421L278.139 32.8468L279.482 34.1903L295.887 17.7856L294.543 16.4421Z" fill="#415B91"/>
<path d="M279.41 16.4408L278.067 17.7843L294.471 34.189L295.815 32.8455L279.41 16.4408Z" fill="#415B91"/>
<path d="M279.7 34.5H261.4V16.2H279.7V34.5ZM263.3 32.6H277.8V18H263.3V32.6Z" fill="#415B91"/>
<path d="M278.068 16.5019L261.663 32.9066L263.007 34.2501L279.411 17.8454L278.068 16.5019Z" fill="#415B91"/>
<path d="M263.008 16.4324L261.664 17.7759L278.069 34.1806L279.413 32.8371L263.008 16.4324Z" fill="#415B91"/>
<path d="M263.3 34.5H245V16.2H263.3V34.5ZM246.9 32.6H261.4V18H246.9V32.6Z" fill="#415B91"/>
<path d="M245.9 34.5H229.5C229.1 34.5 228.8 34.3 228.6 33.9C228.5 33.5 228.5 33.1 228.8 32.9L245.2 16.5L246.5 17.8L231.7 32.6H245.5L261.6 16.5L262.9 17.8L246.5 34.2C246.4 34.4 246.2 34.5 245.9 34.5Z" fill="#415B91"/>
<path d="M246.602 16.4205L245.259 17.7639L261.664 34.1687L263.007 32.8252L246.602 16.4205Z" fill="#415B91"/>
<path d="M313 184.3H294.2V166H313V184.3ZM296.1 182.4H311V167.9H296.1V182.4Z" fill="#415B91"/>
<path d="M311.3 184L294.4 167.6L295.8 166.3L312.7 182.7L311.3 184Z" fill="#415B91"/>
<path d="M295.8 184L294.4 182.7L311.3 166.3L312.7 167.6L295.8 184Z" fill="#415B91"/>
<path d="M313 250H294.2V231.7H313V250ZM296.1 248.1H311V233.6H296.1V248.1Z" fill="#415B91"/>
<path d="M311.3 249.7L294.4 233.3L295.8 231.9L312.7 248.3L311.3 249.7Z" fill="#415B91"/>
<path d="M295.8 249.7L294.4 248.3L311.3 231.9L312.7 233.3L295.8 249.7Z" fill="#415B91"/>
<path d="M313 199.2H294.2V180.9H313V199.2ZM296.1 197.3H311V182.8H296.1V197.3Z" fill="#415B91"/>
<path d="M311.3 198.9L294.4 182.5L295.8 181.1L312.7 197.6L311.3 198.9Z" fill="#415B91"/>
<path d="M295.8 198.9L294.4 197.6L311.3 181.1L312.7 182.5L295.8 198.9Z" fill="#415B91"/>
<path d="M313 215.6H294.2V197.3H313V215.6ZM296.1 213.7H311V199.2H296.1V213.7Z" fill="#415B91"/>
<path d="M311.3 215.3L294.4 198.9L295.8 197.6L312.7 214L311.3 215.3Z" fill="#415B91"/>
<path d="M295.8 215.3L294.4 214L311.3 197.6L312.7 198.9L295.8 215.3Z" fill="#415B91"/>
<path d="M313 232H294.2V213.7H313V232ZM296.1 230.1H311V215.6H296.1V230.1Z" fill="#415B91"/>
<path d="M311.3 231.7L294.4 215.3L295.8 214L312.7 230.4L311.3 231.7Z" fill="#415B91"/>
<path d="M295.8 231.7L294.4 230.4L311.3 214L312.7 215.3L295.8 231.7Z" fill="#415B91"/>
<path d="M103.1 99.6C105.1 99.6 105.1 96.5 103.1 96.5C101.1 96.4 101.1 99.6 103.1 99.6Z" fill="#405B91"/>
<path d="M271.8 67.1C273.8 67.1 273.8 64 271.8 64C269.8 63.9 269.8 67.1 271.8 67.1Z" fill="#405B91"/>
<path d="M341.6 178.4C341.8 178.4 342.1 178.4 342.3 178.4C343.1 178.4 343.9 177.7 343.9 176.8C343.9 176 343.2 175.2 342.3 175.2C342.1 175.2 341.8 175.2 341.6 175.2C340.8 175.2 340 175.9 340 176.8C340.1 177.7 340.8 178.4 341.6 178.4Z" fill="#405B91"/>
<path d="M41.6 201.2C43.6 201.2 43.6 198.1 41.6 198.1C39.6 198.1 39.6 201.2 41.6 201.2Z" fill="#405B91"/>
<path d="M190.2 51.8C192.2 51.8 192.2 48.7 190.2 48.7C188.2 48.7 188.2 51.8 190.2 51.8Z" fill="#405B91"/>
</g>
<defs>
<clipPath id="clip0">
<rect width="400.5" height="252" fill="white"/>
</clipPath>
</defs>
</svg>
