<svg width="416" height="185" viewBox="0 0 416 185" fill="none" xmlns="http://www.w3.org/2000/svg">
<path d="M51.0096 15.3291L51.7766 27.3625L44.3362 21.9206L43.4924 9.88728L51.0096 15.3291Z" fill="#757576"/>
<path d="M94.1184 10.4238L94.8855 22.5338L81.3085 29.8151L80.5415 17.7051L94.1184 10.4238Z" fill="#B2B3B3"/>
<path d="M82.6892 38.3228L83.4563 50.4328L66.1974 37.8629L65.3536 25.7529L82.6892 38.3228Z" fill="#757576"/>
<path d="M65.3536 25.7529L66.1974 37.8629L29.0716 57.6375L28.2279 45.5275L65.3536 25.7529Z" fill="#B2B3B3"/>
<path d="M111.301 40.0857L112.068 52.119L96.7265 60.3201L95.9594 48.2101L111.301 40.0857Z" fill="#B2B3B3"/>
<path d="M95.9594 48.2101L96.7265 60.3201C81.3085 62.8494 65.5838 65.0721 49.859 67.0649L49.0919 54.9549C64.8167 52.8855 80.5415 50.7394 95.9594 48.2101Z" fill="#989899"/>
<path d="M49.0919 54.9549L49.859 67.0649C40.731 68.2146 31.6796 69.3643 22.6283 70.4373L21.8613 58.3273C30.9126 57.2543 39.9639 56.1046 49.0919 54.9549Z" fill="#939494"/>
<path d="M51.0096 15.3291L43.5691 9.88729L58.6802 1.8395L66.1207 7.28133L79.6977 0L94.1184 10.4238L80.5415 17.7051L111.301 40.0857L95.9594 48.2101C71.7202 52.1957 46.4839 55.3381 21.8613 58.3273L0 42.4617L51.0096 15.3291ZM65.3536 25.7529L28.2279 45.5275L28.8415 45.9874C46.4839 43.9179 64.5866 41.5419 82.4591 38.4761L82.6892 38.3228L65.3536 25.7529Z" fill="#C5C6C7"/>
<path d="M21.8613 58.3273L22.705 70.4373L0.767061 54.495L0 42.4617L21.8613 58.3273Z" fill="#757576"/>
<path d="M379.235 20.6943L379.465 32.9576L378.852 32.4978L378.545 20.3111L379.235 20.6943Z" fill="#777878"/>
<path d="M378.545 20.3111L378.775 32.4978C362.13 34.3372 345.178 36.4067 328.379 39.1659L328.149 26.9793C344.948 24.22 361.976 22.0739 378.545 20.3111Z" fill="#989899"/>
<path d="M328.149 26.9793L328.379 39.1659C327.459 39.3192 326.461 39.4725 325.541 39.6258L325.311 27.4391C326.231 27.2858 327.152 27.1326 328.149 26.9793Z" fill="#9C9D9E"/>
<path d="M325.311 27.4391L325.541 39.6258L325.311 39.7791L325.081 27.5158L325.311 27.4391Z" fill="#B1B2B2"/>
<path d="M328.456 47.8269L328.686 60.0135L296.546 37.9396L296.239 25.7529L328.456 47.8269Z" fill="#777878"/>
<path d="M407.693 23.9134L408 36.1001L358.448 62.5428L358.218 50.3562L407.693 23.9134Z" fill="#B1B2B2"/>
<path d="M351.391 63.5392L351.621 75.7259L343.797 70.3607L343.567 58.174L351.391 63.5392Z" fill="#777878"/>
<path d="M366.042 55.7214L366.349 67.908L351.621 75.7259L351.391 63.5392L366.042 55.7214Z" fill="#B1B2B2"/>
<path d="M330.373 65.2254L330.603 77.4121L315.492 67.0649L315.262 54.8783L330.373 65.2254Z" fill="#777878"/>
<path d="M358.218 50.3562L366.042 55.7214L351.391 63.5392L343.567 58.174L330.373 65.2254L315.262 54.8783L328.456 47.8269L296.239 25.7529L311.12 17.7818C335.206 13.9495 360.289 10.9603 384.835 8.12444L407.77 23.8368L358.218 50.3562ZM343.183 40.009L379.235 20.771L378.622 20.3111C361.056 22.2272 343.107 24.5266 325.311 27.4391L325.081 27.5924L343.183 40.009Z" fill="#C7C8C9"/>
<path d="M343.567 58.174L343.797 70.3607L330.603 77.4121L330.373 65.2254L343.567 58.174Z" fill="#B1B2B2"/>
<path d="M219.456 49.8197L218.766 61.6231C213.78 57.3309 208.948 54.4184 204.575 52.5789L205.266 40.7755C209.638 42.615 214.394 45.6041 219.456 49.8197Z" fill="#787879"/>
<path d="M205.266 40.7755L204.575 52.5789C203.348 52.119 202.197 51.6591 201.047 51.3526L201.737 39.5491C202.888 39.8557 204.115 40.239 205.266 40.7755Z" fill="#7C7D7D"/>
<path d="M201.814 39.5491L201.124 51.3526C200.356 51.1226 199.513 50.9693 198.746 50.816L199.436 39.0126C200.203 39.0893 200.97 39.3192 201.814 39.5491Z" fill="#818182"/>
<path d="M199.436 38.936L198.746 50.7394C198.132 50.5861 197.518 50.5095 196.905 50.4328L197.595 38.6294C198.209 38.706 198.822 38.8593 199.436 38.936Z" fill="#858687"/>
<path d="M197.595 38.706L196.905 50.5095C196.368 50.4328 195.831 50.4328 195.294 50.3562L195.984 38.5527C196.444 38.5527 196.981 38.6294 197.595 38.706Z" fill="#8A8B8B"/>
<path d="M195.907 38.5527L195.217 50.3562C194.68 50.3562 194.143 50.3562 193.606 50.3562L194.297 38.5527C194.834 38.5527 195.371 38.5527 195.907 38.5527Z" fill="#8F8F90"/>
<path d="M194.373 38.5527L193.683 50.3562C193.069 50.3562 192.532 50.4328 191.919 50.5095L192.609 38.706C193.146 38.6294 193.76 38.6294 194.373 38.5527Z" fill="#939494"/>
<path d="M192.609 38.7827L191.919 50.5861C190.998 50.7394 190.078 50.9693 189.234 51.2759L189.924 39.4725C190.768 39.0893 191.689 38.8593 192.609 38.7827Z" fill="#989899"/>
<path d="M189.924 39.3959L189.234 51.1993C188.774 51.3526 188.39 51.5059 187.93 51.7358C187.47 51.9657 187.01 52.1957 186.626 52.4256L187.316 40.6222C187.7 40.3922 188.16 40.1623 188.62 39.9324C189.081 39.7791 189.541 39.5491 189.924 39.3959Z" fill="#9C9D9E"/>
<path d="M187.393 40.6222L186.703 52.4256C186.012 52.8855 185.399 53.3454 184.939 53.8819L185.629 42.0784C186.089 41.5419 186.703 41.0821 187.393 40.6222Z" fill="#989899"/>
<path d="M185.629 42.0784L184.939 53.8819C184.632 54.1885 184.402 54.5717 184.171 54.8783L184.862 43.0748C185.092 42.7683 185.322 42.385 185.629 42.0784Z" fill="#939494"/>
<path d="M184.862 43.0748L184.171 54.8783C184.018 55.1848 183.865 55.4914 183.711 55.8747L184.402 44.0712C184.555 43.7647 184.708 43.3814 184.862 43.0748Z" fill="#8F8F90"/>
<path d="M184.402 44.0712L183.711 55.8747C183.558 56.1812 183.481 56.5645 183.481 56.9477L184.171 45.1443C184.171 44.761 184.248 44.3778 184.402 44.0712Z" fill="#8A8B8B"/>
<path d="M184.171 45.0676L183.481 56.871C183.481 57.101 183.404 57.2543 183.404 57.4842L184.095 45.6808C184.095 45.5275 184.095 45.2976 184.171 45.0676Z" fill="#858687"/>
<path d="M223.368 53.1921L222.678 64.9188L218.766 61.6231L219.456 49.8197L223.368 53.1921Z" fill="#767778"/>
<path d="M234.184 68.9811L233.493 80.7845C233.724 76.7989 230.349 71.5104 222.678 64.9955L223.368 53.1921C231.039 59.7069 234.414 64.9955 234.184 68.9811Z" fill="#787879"/>
<path d="M175.35 70.4373L174.66 82.2408C165.225 74.2696 160.469 66.0685 160.929 58.7872L161.62 46.9838C161.16 54.2651 165.915 62.4662 175.35 70.4373Z" fill="#787879"/>
<path d="M179.339 73.8864L178.649 85.6132L174.66 82.2408L175.35 70.4373L179.339 73.8864Z" fill="#767778"/>
<path d="M256.659 67.7547L255.968 79.5582C255.968 80.0947 255.892 80.5546 255.815 81.0911L256.505 69.2877C256.582 68.8278 256.659 68.2913 256.659 67.7547Z" fill="#858687"/>
<path d="M256.505 69.2877L255.815 81.0911C255.662 82.0108 255.431 82.9306 255.125 83.8503L255.815 72.0469C256.122 71.1271 256.352 70.2074 256.505 69.2877Z" fill="#8A8B8B"/>
<path d="M255.815 72.0469L255.125 83.8503C254.818 84.7701 254.358 85.6898 253.821 86.6096L254.511 74.8061C255.048 73.8864 255.431 72.9666 255.815 72.0469Z" fill="#8F8F90"/>
<path d="M254.511 74.8061L253.821 86.6096C253.207 87.6826 252.44 88.679 251.519 89.6754L252.21 77.872C253.13 76.8756 253.821 75.8792 254.511 74.8061Z" fill="#939494"/>
<path d="M252.21 77.872L251.519 89.6754C249.985 91.3616 248.068 92.9711 245.613 94.5041L246.303 82.7006C248.681 81.1677 250.676 79.5582 252.21 77.872Z" fill="#989899"/>
<path d="M246.303 82.624L245.613 94.4274C244.232 95.2705 242.698 96.1136 240.934 96.9567C239.477 97.6465 237.942 98.2597 236.408 98.7962L237.099 86.9928C238.633 86.4563 240.167 85.8431 241.624 85.1533C243.389 84.3868 244.923 83.5437 246.303 82.624Z" fill="#9C9D9E"/>
<path d="M237.099 87.0694L236.408 98.8729C233.494 99.9459 230.502 100.636 227.51 101.172L228.201 89.3688C231.192 88.8323 234.184 88.0658 237.099 87.0694Z" fill="#989899"/>
<path d="M228.201 89.2922L227.51 101.096C225.746 101.402 223.982 101.555 222.294 101.632L222.985 89.8287C224.672 89.752 226.437 89.5987 228.201 89.2922Z" fill="#939494"/>
<path d="M222.985 89.8287L222.294 101.632C220.837 101.709 219.303 101.709 217.845 101.709L218.536 89.9053C219.993 89.982 221.451 89.9053 222.985 89.8287Z" fill="#8F8F90"/>
<path d="M218.536 89.9053L217.845 101.709C216.388 101.632 215.007 101.555 213.55 101.402L214.24 89.5987C215.621 89.752 217.078 89.8287 218.536 89.9053Z" fill="#8A8B8B"/>
<path d="M214.24 89.5987L213.55 101.402C212.092 101.249 210.558 101.019 209.101 100.712L209.791 88.9089C211.249 89.2155 212.706 89.4454 214.24 89.5987Z" fill="#858687"/>
<path d="M209.715 88.9089L209.024 100.712C207.26 100.406 205.572 99.9459 203.885 99.486L204.575 87.6826C206.263 88.1425 208.027 88.6023 209.715 88.9089Z" fill="#818182"/>
<path d="M204.575 87.6826L203.885 99.486C201.584 98.7962 199.359 98.0298 197.135 97.11L197.825 85.3066C200.05 86.2263 202.274 86.9928 204.575 87.6826Z" fill="#7C7D7D"/>
<path d="M197.825 85.3066L197.135 97.11C190.615 94.3508 184.402 90.5185 178.649 85.6898L179.339 73.8864C185.092 78.7151 191.305 82.5473 197.825 85.3066Z" fill="#787879"/>
<path d="M176.654 29.5086C197.135 19.9279 220.453 25.1398 238.786 40.6988L242.775 44.1479C259.88 58.5573 263.102 75.1127 241.624 85.1533C221.221 94.734 197.595 89.2922 179.339 73.8097L175.35 70.3607C157.094 54.9549 156.327 39.0126 176.654 29.5086ZM223.368 53.1921L219.456 49.8197C206.953 39.2426 195.984 36.4833 188.697 39.9324C181.333 43.3814 182.254 50.6628 194.834 61.3165L198.746 64.6889C211.325 75.3426 222.294 78.1785 229.658 74.7295C236.945 71.2804 235.871 63.7692 223.368 53.1921Z" fill="#CECFD0"/>
<g opacity="0.4" filter="url(#filter0_f)">
<path d="M64.3565 94.4274L58.6802 90.1353L70.2628 84.0802L75.9391 88.3724L86.3711 82.9306L97.2634 91.1316L86.8314 96.5735L110.15 114.125L98.414 120.257C79.9278 123.093 60.6746 125.239 41.9583 127.308L25.3897 114.815L64.3565 94.4274ZM75.2487 102.628L46.8675 117.498L47.3277 117.881C60.7513 116.501 74.5584 114.815 88.2121 112.669L88.3655 112.592L75.2487 102.628Z" fill="#BCBEC0"/>
<path d="M362.667 119.107L368.88 123.246L357.527 129.608L351.314 125.469L341.112 131.141L329.223 123.093L339.425 117.421L313.958 100.252L325.387 93.8909C344.104 90.6718 363.587 88.0658 382.687 85.6132L400.79 97.7998L362.667 119.107ZM350.777 111.06L378.545 95.5004L378.008 95.1939C364.354 96.8801 350.394 98.7962 336.587 101.326L336.433 101.402L350.777 111.06Z" fill="#BCBEC0"/>
<path d="M201.43 123.246C217.078 115.965 234.721 120.104 248.375 132.137L251.366 134.82C264.099 146.01 266.247 158.81 249.909 166.398C234.261 173.679 216.465 169.387 202.811 157.43L199.82 154.748C186.243 142.791 185.859 130.451 201.43 123.246ZM236.485 141.718L233.57 139.112C224.212 130.911 216.005 128.765 210.405 131.371C204.805 133.977 205.419 139.648 214.777 147.926L217.692 150.532C227.05 158.81 235.334 161.032 241.011 158.35C246.534 155.667 245.843 149.919 236.485 141.718Z" fill="#BCBEC0"/>
</g>
<defs>
<filter id="filter0_f" x="10.3897" y="67.9306" width="405.4" height="117.035" filterUnits="userSpaceOnUse" color-interpolation-filters="sRGB">
<feFlood flood-opacity="0" result="BackgroundImageFix"/>
<feBlend mode="normal" in="SourceGraphic" in2="BackgroundImageFix" result="shape"/>
<feGaussianBlur stdDeviation="7.5" result="effect1_foregroundBlur"/>
</filter>
</defs>
</svg>
